<svg viewBox="0 0 100 100" xmlns="http://www.w3.org/2000/svg">
    <!-- Body -->
    <path d="M 50,30 C 40,20 30,30 30,40 L 30,60 C 30,70 40,80 50,80 C 60,80 70,70 70,60 L 70,40 C 70,30 60,20 50,30 Z" fill="none" stroke-width="2"/>
    <!-- Tail -->
    <path d="M 50,80 C 45,85 55,85 50,90 C 45,95 55,95 50,100" fill="none" stroke-width="2"/>
    <!-- Claws -->
    <path d="M 30,45 C 20,40 15,50 20,55" fill="none" stroke-width="2"/>
    <path d="M 70,45 C 80,40 85,50 80,55" fill="none" stroke-width="2"/>
    <!-- Eyes -->
    <circle cx="45" cy="35" r="2"/>
    <circle cx="55" cy="35" r="2"/>
    <!-- Antennae -->
    <path d="M 45,30 Q 30,10 20,15" fill="none" stroke-width="1.5"/>
    <path d="M 55,30 Q 70,10 80,15" fill="none" stroke-width="1.5"/>
</svg>